<?xml version="1.0" standalone="no"?><!DOCTYPE svg PUBLIC "-//W3C//DTD SVG 1.1//EN" "http://www.w3.org/Graphics/SVG/1.1/DTD/svg11.dtd"><svg t="1548333890197" class="icon" style="" viewBox="0 0 1024 1024" version="1.1" xmlns="http://www.w3.org/2000/svg" p-id="17892" xmlns:xlink="http://www.w3.org/1999/xlink" width="16" height="16"><defs><style type="text/css"></style></defs><path d="M749.653143 921.466766H544.998043c-14.128789 0-25.582655-11.453866-25.582655-25.582655v-81.112366c0-29.481452-23.984251-53.465702-53.465702-53.465702h-39.937594c-29.482475 0-53.466726 23.984251-53.466726 53.465702v81.112366c0 14.128789-11.453866 25.582655-25.582655 25.582655H137.393695c-17.975397 0-32.599466-14.624069-32.599465-32.599466v-210.821543c0-14.129812 11.453866-25.582655 25.582654-25.582655h76.158541c29.483498 0 53.466726-23.986297 53.466726-53.469795v-39.936571c0-29.482475-23.984251-53.467749-53.466726-53.467749h-76.158541c-14.128789 0-25.582655-11.453866-25.582654-25.582655V276.607852c0-17.975397 14.624069-32.599466 32.599465-32.599466h195.105606v-45.721321c0-52.79953 42.954301-95.752808 95.751785-95.752807h35.453466c52.798507 0 95.752808 42.955324 95.752808 95.752807v45.721321h190.19169c17.974373 0 32.597419 14.624069 32.597419 32.599466V469.257523h41.204447c52.798507 0 95.752808 42.955324 95.752808 95.752808v35.45449c0 52.79953-42.954301 95.751784-95.752808 95.751784H782.246469v192.647625c0.004093 17.978467-14.618952 32.602535-32.593326 32.602536z m-179.072445-51.16531h160.506601V670.63702c0-14.130835 11.452843-25.582655 25.582655-25.582655h66.787102c24.585955 0 44.587498-20.002566 44.587498-44.587498v-35.455513c0-24.583908-20.001543-44.586474-44.587498-44.586474h-66.787102c-14.129812 0-25.582655-11.452843-25.582655-25.582655V295.173696H533.877775c-14.128789 0-25.582655-11.452843-25.582655-25.582655V198.286042c0-24.583908-20.001543-44.586474-44.586474-44.586474H428.254156c-24.584931 0-44.587498 20.002566-44.587498 44.586474v71.304999c0 14.129812-11.452843 25.582655-25.582655 25.582655h-202.12344v159.249981h50.575885c57.694003 0 104.632035 46.938032 104.632036 104.633059v39.935547c0 57.697073-46.938032 104.635105-104.632036 104.635106h-50.575885V870.301456H321.380056v-55.528688c0-57.694003 46.937009-104.631012 104.632036-104.631012h39.937594c57.69298 0 104.631012 46.937009 104.631012 104.631012v55.528688z" fill="#1CA538" p-id="17893"></path><path d="M506.740718 628.743888c-57.05546 0-103.473653-46.419216-103.473653-103.4757 0-57.05546 46.418192-103.473653 103.473653-103.473653s103.473653 46.417169 103.473653 103.473653-46.418192 103.475699-103.473653 103.4757z m0-155.783019c-28.843932 0-52.308343 23.465434-52.308343 52.308342 0 28.844955 23.465434 52.31039 52.308343 52.31039 28.842909 0 52.308343-23.467481 52.308343-52.31039 0-28.844955-23.465434-52.308343-52.308343-52.308342z" fill="#1CA538" p-id="17894"></path></svg>