<?xml version="1.0" standalone="no"?><!DOCTYPE svg PUBLIC "-//W3C//DTD SVG 1.1//EN" "http://www.w3.org/Graphics/SVG/1.1/DTD/svg11.dtd"><svg t="1547220027985" class="icon" style="" viewBox="0 0 1024 1024" version="1.1" xmlns="http://www.w3.org/2000/svg" p-id="6125" xmlns:xlink="http://www.w3.org/1999/xlink" width="16" height="16"><defs><style type="text/css"></style></defs><path d="M347.961165 119.300971l89.475728-89.475728a99.417476 99.417476 0 0 1 139.184466 0l89.475728 89.475728H795.339806a99.417476 99.417476 0 0 1 99.417476 99.417476v129.242718l89.475728 89.475728a99.417476 99.417476 0 0 1 0 139.184466l-89.475728 89.475728V795.339806a99.417476 99.417476 0 0 1-99.417476 99.417476H666.097087l-89.475728 89.475728a99.417476 99.417476 0 0 1-139.184466 0L347.961165 894.757282H218.718447a99.417476 99.417476 0 0 1-99.417476-99.417476V666.097087l-89.475728-89.475728a99.417476 99.417476 0 0 1 0-139.184466l89.475728-89.475728V218.718447a99.417476 99.417476 0 0 1 99.417476-99.417476z" fill="#3BA94D" p-id="6126"></path><path d="M507.029126 705.864078h-39.76699l-198.834952-198.834952a49.708738 49.708738 0 0 1 69.592233-69.592233l169.009709 149.126214 367.84466-367.84466a49.708738 49.708738 0 1 1 69.592233 69.592233l-397.669902 397.669903z" fill="#FFFFFF" p-id="6127"></path></svg>