<?xml version="1.0" standalone="no"?><!DOCTYPE svg PUBLIC "-//W3C//DTD SVG 1.1//EN" "http://www.w3.org/Graphics/SVG/1.1/DTD/svg11.dtd"><svg t="1547220712022" class="icon" style="" viewBox="0 0 1026 1024" version="1.1" xmlns="http://www.w3.org/2000/svg" p-id="7110" xmlns:xlink="http://www.w3.org/1999/xlink" width="16.03125" height="16"><defs><style type="text/css"></style></defs><path fill="#3BA94D" d="M512 682.666667c-93.866667 0-170.666667-76.8-170.666667-170.666667s76.8-170.666667 170.666667-170.666667 170.666667 76.8 170.666667 170.666667-76.8 170.666667-170.666667 170.666667z m0-256c-46.933333 0-85.333333 38.4-85.333333 85.333333s38.4 85.333333 85.333333 85.333333 85.333333-38.4 85.333333-85.333333-38.4-85.333333-85.333333-85.333333z" p-id="7111"></path><path d="M512 853.333333C192 853.333333 12.8 546.133333 4.266667 533.333333c-8.533333-12.8-8.533333-29.866667 0-42.666666C12.8 477.866667 192 170.666667 512 170.666667s499.2 307.2 507.733333 320c8.533333 12.8 8.533333 29.866667 0 42.666666-8.533333 12.8-187.733333 320-507.733333 320z m-418.133333-341.333333c42.666667 64 192 256 418.133333 256 226.133333 0 375.466667-192 418.133333-256-42.666667-64-192-256-418.133333-256-226.133333 0-375.466667 192-418.133333 256z" p-id="7112" fill="#3BA94D"></path></svg>