<?xml version="1.0" standalone="no"?><!DOCTYPE svg PUBLIC "-//W3C//DTD SVG 1.1//EN" "http://www.w3.org/Graphics/SVG/1.1/DTD/svg11.dtd"><svg t="1546521518103" class="icon" style="" viewBox="0 0 1024 1024" version="1.1" xmlns="http://www.w3.org/2000/svg" p-id="3184" xmlns:xlink="http://www.w3.org/1999/xlink" width="16" height="16"><defs><style type="text/css"></style></defs><path d="M329.142857 256c0-40.557714-32.585143-73.142857-73.142857-73.142857s-73.142857 32.585143-73.142857 73.142857 32.585143 73.142857 73.142857 73.142857 73.142857-32.585143 73.142857-73.142857z m609.718857 329.142857c0 19.419429-8.009143 38.290286-21.138285 51.419429l-280.576 281.161143c-13.714286 13.129143-32.585143 21.138286-52.004572 21.138285s-38.290286-8.009143-51.419428-21.138285L125.147429 508.562286C96 480 73.142857 424.557714 73.142857 384V146.285714c0-40.009143 33.133714-73.142857 73.142857-73.142857h237.714286c40.557714 0 96 22.857143 125.147429 52.004572l408.576 407.990857c13.129143 13.714286 21.138286 32.585143 21.138285 52.004571z" fill="#1296db" p-id="3185"></path></svg>