<?xml version="1.0" standalone="no"?><!DOCTYPE svg PUBLIC "-//W3C//DTD SVG 1.1//EN" "http://www.w3.org/Graphics/SVG/1.1/DTD/svg11.dtd"><svg t="1546521478334" class="icon" style="" viewBox="0 0 1024 1024" version="1.1" xmlns="http://www.w3.org/2000/svg" p-id="2174" xmlns:xlink="http://www.w3.org/1999/xlink" width="16" height="16"><defs><style type="text/css"></style></defs><path d="M704 192c-77.2 0-140 62.8-140 140 0 66.8 47.4 123.8 111.8 137-2.4 38.2-20.6 58.6-54 84.4-40.8 31.4-93.4 40-130.6 46.8-81.4 14.8-125.8 54-145 80V341.6c30-5.6 57.4-21 78-43.8 23.2-25.8 36-59 36-93.8 0-77.2-62.8-140-140-140s-140 62.8-140 140c0 34 12.4 66.6 34.6 92.2 19.8 22.6 46.2 38.2 75.4 44.6v342.6c-29 6.4-55.6 22-75.4 44.6C192.4 753.4 180 786 180 820c0 77.2 62.8 140 140 140s140-62.8 140-140c0-46.8-23.2-89.8-61.4-115.8 17.2-19.4 49-39.2 102.2-48.8 43.2-7.8 105.2-19.2 154.8-57.6 47.2-36.4 73.4-73 76-128.6 64.6-13 112.2-70.2 112.2-137.2 0.2-77.2-62.6-140-139.8-140z m-468 12c0-46.4 37.6-84 84-84s84 37.6 84 84-37.6 84-84 84-84-37.6-84-84z m168 616c0 46.4-37.6 84-84 84s-84-37.6-84-84 37.6-84 84-84 84 37.6 84 84z m300-404c-46.4 0-84-37.6-84-84s37.6-84 84-84 84 37.6 84 84-37.6 84-84 84z" fill="#aaaaaa" p-id="2175"></path></svg>