<?xml version="1.0" standalone="no"?><!DOCTYPE svg PUBLIC "-//W3C//DTD SVG 1.1//EN" "http://www.w3.org/Graphics/SVG/1.1/DTD/svg11.dtd"><svg t="1548333961796" class="icon" style="" viewBox="0 0 1024 1024" version="1.1" xmlns="http://www.w3.org/2000/svg" p-id="18852" xmlns:xlink="http://www.w3.org/1999/xlink" width="16" height="16"><defs><style type="text/css"></style></defs><path d="M891.033 98.392H649.87c-56.248 0-106.304 27.178-137.783 68.978-31.479-41.8-81.535-68.978-137.783-68.978H132.967c-38.015 0-68.978 30.963-68.978 68.978v637.484c0 38.015 30.963 68.978 68.978 68.978h253.377c33.886 33.026 78.782 51.604 125.742 51.604s91.856-18.578 125.742-51.604h253.205c38.015 0 68.978-30.963 68.978-68.978V167.37c0-38.015-30.963-68.978-68.978-68.978z m0 706.462h-268.17c-9.977 0-19.61 4.3-26.146 12.041-21.502 25.114-52.464 39.563-84.631 39.563s-63.13-14.449-84.63-39.563c-6.537-7.74-16.17-12.041-26.147-12.041H132.967V167.37H374.13c56.936 0 103.38 46.444 103.38 103.38v292.94c0 19.094 15.481 34.403 34.403 34.403 19.094 0 34.403-15.481 34.403-34.403V270.75c0-56.936 46.444-103.38 103.38-103.38h241.336v637.484z" p-id="18853" fill="#1CA538"></path></svg>