<?xml version="1.0" standalone="no"?><!DOCTYPE svg PUBLIC "-//W3C//DTD SVG 1.1//EN" "http://www.w3.org/Graphics/SVG/1.1/DTD/svg11.dtd"><svg t="1548919875116" class="icon" style="" viewBox="0 0 1024 1024" version="1.1" xmlns="http://www.w3.org/2000/svg" p-id="4881" xmlns:xlink="http://www.w3.org/1999/xlink" width="16" height="16"><defs><style type="text/css"></style></defs><path d="M915.2 420.267c-21.333-243.2-206.933-373.334-418.133-377.6-128-6.4-253.867 42.666-339.2 134.4 61.866-64 164.266-96 311.466-91.734 89.6 4.267 177.067 36.267 245.334 91.734 72.533 61.866 115.2 151.466 117.333 243.2h-83.2l119.467 151.466 113.066-151.466H915.2zM108.8 603.733c21.333 243.2 204.8 373.334 416 377.6 128 6.4 253.867-42.666 339.2-134.4-61.867 64-164.267 96-311.467 91.734-89.6-4.267-177.066-36.267-245.333-91.734-72.533-61.866-115.2-151.466-117.333-243.2h83.2L153.6 452.267 42.667 603.733H108.8z" fill="#1CA538" p-id="4882"></path><path d="M420.267 366.933c-6.4-36.266-42.667-61.866-78.934-55.466-36.266 6.4-61.866 42.666-55.466 78.933 4.266 23.467 19.2 42.667 40.533 51.2v117.333c2.133 55.467 21.333 85.334 46.933 98.134C377.6 684.8 403.2 704 430.933 699.733c21.334-2.133 38.4-19.2 42.667-38.4 10.667-4.266 19.2-10.666 27.733-17.066 21.334-23.467 32-55.467 29.867-87.467v-83.2c2.133-42.667 14.933-66.133 29.867-78.933C576 418.133 608 424.533 631.467 409.6c4.266-2.133 8.533-6.4 12.8-10.667 14.933 21.334 23.466 46.934 19.2 72.534v96c-36.267 12.8-53.334 53.333-40.534 87.466 12.8 36.267 53.334 53.334 87.467 40.534 36.267-12.8 53.333-53.334 40.533-87.467-8.533-21.333-27.733-38.4-49.066-42.667V473.6c0-66.133-21.334-96-49.067-113.067-4.267-27.733-29.867-46.933-57.6-42.666-21.333 2.133-36.267 17.066-42.667 38.4-32 14.933-57.6 46.933-61.866 117.333v85.333c2.133 21.334-4.267 42.667-19.2 57.6-2.134 2.134-4.267 4.267-8.534 6.4C448 599.467 416 593.067 392.533 608c-4.266 2.133-8.533 6.4-12.8 10.667-12.8-17.067-21.333-38.4-19.2-59.734V445.867c42.667-4.267 68.267-40.534 59.734-78.934z m266.666 238.934c17.067 0 29.867 14.933 29.867 29.866 0 17.067-12.8 29.867-29.867 29.867-17.066 0-29.866-12.8-29.866-29.867 0-17.066 12.8-29.866 29.866-29.866zM352 409.6c-17.067 0-29.867-14.933-29.867-32s14.934-29.867 32-29.867 29.867 14.934 29.867 32c0 19.2-14.933 32-32 29.867z" fill="#1CA538" p-id="4883"></path></svg>