<?xml version="1.0" standalone="no"?><!DOCTYPE svg PUBLIC "-//W3C//DTD SVG 1.1//EN" "http://www.w3.org/Graphics/SVG/1.1/DTD/svg11.dtd"><svg t="1546162646542" class="icon" style="" viewBox="0 0 1228 1024" version="1.1" xmlns="http://www.w3.org/2000/svg" p-id="27564" xmlns:xlink="http://www.w3.org/1999/xlink" width="153.5" height="128"><defs><style type="text/css"></style></defs><path d="M926.1056 1023.7952c27.3408 0 59.392-22.4256 71.0656-52.8384l227.328-544.256c13.6192-33.1776-6.144-52.9408-41.7792-52.9408H953.2416V243.712c0-44.8512-28.8768-81.3056-64.4096-81.3056H326.9632L285.2864 23.8592C280.8832 9.5232 269.9264 0 257.8432 0H29.9008a26.624 26.624 0 0 0-20.7872 10.9568 42.7008 42.7008 0 0 0-8.6016 26.4192L1.1264 243.712 0 942.592c0 44.8512 28.8768 81.408 64.3072 81.408l861.7984-0.2048zM894.5664 373.76H394.0352c-23.04 0-44.8512 23.552-56.4224 52.8384L133.12 949.76H64.3072c-3.072 0-5.632-3.1744-5.632-7.168V74.24H237.568l41.6768 138.4448c4.3008 14.336 15.2576 23.9616 27.3408 23.9616H888.832c3.072 0 5.7344 3.1744 5.7344 7.168v130.048z" p-id="27565" fill="#cdcdcd"></path></svg>