<?xml version="1.0" standalone="no"?><!DOCTYPE svg PUBLIC "-//W3C//DTD SVG 1.1//EN" "http://www.w3.org/Graphics/SVG/1.1/DTD/svg11.dtd"><svg t="1548919903609" class="icon" style="" viewBox="0 0 1024 1024" version="1.1" xmlns="http://www.w3.org/2000/svg" p-id="5858" xmlns:xlink="http://www.w3.org/1999/xlink" width="16" height="16"><defs><style type="text/css"></style></defs><path d="M1005.31 2.06Q1000.17 0 993.99 0q-11.33 1.03-19.57 5.67t-9.27 5.67L504.78 243.07Q105.18 443.9 26.91 484.06q-13.39 7.21-20.6 18.54Q-0.9 513.93 0.13 526.29q2.06 21.63 23.69 28.84l303.82 95.78 17.51-51.5-261.6-82.39L886.88 98.88 437.84 607.65q-30.9 33.99-29.87 73.13v215.25q1.03 10.3 8.75 17.51 7.72 7.2 18.54 7.2 10.81 0 18.54-7.2 7.73-7.21 8.76-17.51l1.03-99.9q0-88.58-1.03-111.23 0-10.3 3.6-19.57t7.72-14.42l479.94-543.79-131.83 656.05q-2.06 5.15-4.12 4.12l-295.58-88.57-17.51 51.49 298.67 90.63q7.21 2.06 15.45 2.06 21.63 0 37.08-12.87t19.57-35.53l147.27-729.17q2.06-10.3 0.51-22.14-1.55-11.85-18.03-21.12z" fill="#1CA538" p-id="5859"></path></svg>