<?xml version="1.0" standalone="no"?><!DOCTYPE svg PUBLIC "-//W3C//DTD SVG 1.1//EN" "http://www.w3.org/Graphics/SVG/1.1/DTD/svg11.dtd"><svg t="1548342883622" class="icon" style="" viewBox="0 0 1024 1024" version="1.1" xmlns="http://www.w3.org/2000/svg" p-id="31372" xmlns:xlink="http://www.w3.org/1999/xlink" width="16" height="16"><defs><style type="text/css"></style></defs><path d="M406.497 597.204c-15.515-16.162-29.479-35.038-58.053-34.004-54.82 2.198-109.899 1.164-164.848 0.259-19.523-0.388-37.495 4.137-36.72 24.953 0.647 20.04 19.007 24.954 38.271 24.436 33.358-0.775 66.845-0.258 100.202-0.258v-0.259c36.59 0 73.31 0.259 109.9-0.129 9.826 0 24.307-1.422 11.248-14.998zM182.432 419.556c34.522-0.13 69.301-2.845 103.435 0.775 41.89 4.526 72.533-9.567 100.072-49.26-71.37 0-137.826 0.388-204.282-0.259-18.101-0.13-35.039 2.715-34.263 23.402 0.646 18.748 16.808 25.342 35.038 25.342zM172.347 512c21.592-0.776 43.184-0.259 64.776-0.259v0.13c19.394 0 38.917 1.034 58.311-0.388 9.827-0.647 26.247 7.628 26.764-12.8 0.388-14.869-3.62-29.996-20.428-32.065-44.994-5.3-90.247-5.818-135.24 0.388-10.861 1.552-23.403 10.473-19.524 25.083 2.845 11.507 10.473 20.428 25.341 19.911z" fill="#1CA538" p-id="31373"></path><path d="M871.564 405.204c-16.162-36.978-47.192-19.394-73.18-20.945-24.437-1.423-49.52 26.505-70.336 8.016-17.842-15.903-28.315-42.279-36.59-65.94-10.601-30.513-35.038-52.105-54.561-83.91 69.172 26.634 110.804 1.81 130.974-30.902 23.272-37.753 16.808-87.272-14.74-116.363-31.935-29.35-79.903-33.875-115.329-10.602-45.253 29.737-51.717 67.75-21.075 143.127-49.131-15.386-89.858-38.788-133.171-55.855-17.196-6.852-33.617-23.79-53.657-15.644-53.14 21.721-105.89 44.218-157.608 69.172-31.806 15.385-38.53 37.365-25.212 61.802 10.86 20.04 38.53 26.375 65.68 14.48 23.273-10.214 46.805-20.17 69.172-32.194 37.495-20.17 71.37-20.428 107.96 4.914 23.79 16.55 20.428 26.634 2.844 43.442-39.822 37.883-82.36 73.05-115.588 117.269-24.436 32.452-23.272 65.94 5.948 93.996 36.073 34.392 73.697 67.232 110.287 101.107 11.378 10.472 21.204 21.074-5.301 25.988-35.685 6.594-70.723 16.161-106.279 23.53-25.988 5.302-47.321 29.48-42.796 50.684 5.301 25.083 36.202 41.115 62.836 34.78 70.465-16.68 140.8-33.1 211.653-47.839 36.331-7.628 53.269-43.83 31.418-72.921-20.299-27.152-42.15-53.14-61.802-80.679-46.028-64.646-45.64-65.034 12.283-121.664 32.582-31.807 32.323-31.677 57.147 9.826 10.732 17.972 20.04 39.822 46.546 37.753 52.493-4.137 103.305-17.584 153.73-31.16 19.393-5.3 27.021-34.391 18.747-53.268zM607.03 730.634c-25.212 18.619-60.638 8.017-89.6 24.566-8.92 5.042-16.29 11.507-21.074 18.747-25.083 38.013-48.097 77.318-72.922 115.46-14.74 22.496-9.05 42.278 9.439 56.112 19.782 14.74 43.83 14.481 59.733-6.982 44.735-60.38 88.178-121.794 131.62-183.078 12.154-17.067 1.552-22.627-17.196-24.825z" fill="#1CA538" p-id="31374"></path></svg>