<?xml version="1.0" standalone="no"?><!DOCTYPE svg PUBLIC "-//W3C//DTD SVG 1.1//EN" "http://www.w3.org/Graphics/SVG/1.1/DTD/svg11.dtd"><svg t="1548332719416" class="icon" style="" viewBox="0 0 1024 1024" version="1.1" xmlns="http://www.w3.org/2000/svg" p-id="11331" xmlns:xlink="http://www.w3.org/1999/xlink" width="16" height="16"><defs><style type="text/css"></style></defs><path d="M906.369322 155.493445c-0.871043-0.096101-21.714734-2.310513-52.233955-2.310513-83.515849 0-192.830724 15.517243-239.257725 89.425037-29.636932 47.180474-27.699577 109.600111 5.706763 185.70596-24.155086 22.147189-73.597 71.750634-96.241051 125.318757-15.782032-19.023906-31.653008-32.328782-43.441736-40.803049 10.484209-35.706629 29.029655-123.091054-15.703311-188.186184-33.412474-48.61381-93.513419-73.258602-178.613912-73.258602-58.572531 0-130.352813 11.851092-213.341129 35.226124-11.307201 3.188713-18.124238 14.706518-15.469192 26.153782 3.015935 12.996125 75.816524 318.438806 244.729348 318.485834 0.009201 0 0.027603 0 0.037827 0 49.991939 0 102.091966-27.232362 155.072236-80.957927 15.183956 11.349118 38.815598 33.035226 56.971529 68.015986 0.246387 0.542868 0.520377 1.070401 0.80868 1.589756 8.934325 17.572168 16.462917 38.437329 20.885608 62.955349-21.912048-2.86565-44.692072 4.063845-61.952423 18.054718-5.872384 4.754954-11.029122 10.178526-15.383315 16.215508-33.364423 11.085351-57.656504 41.010586-61.73364 76.218308-3.141684 2.090708-6.178067 4.420645-9.137773 6.971411-17.512872 15.316862-28.017528 37.46814-28.819051 60.767518-0.802545 23.57848 7.935488 45.761451 24.598786 62.460531 15.948675 15.966055 37.165524 24.751116 59.756413 24.751116l239.344625 0c22.583732 0 43.801604-8.785062 59.739033-24.731692 15.993658-15.985479 24.816547-37.251401 24.816547-59.880117 0-16.577421-4.899106-32.666157-14.057326-46.390197-3.207115-4.899106-6.930517-9.461858-11.150782-13.63305-3.811324-18.097656-12.91127-34.960313-26.106754-48.176244-14.448886-14.505115-32.868583-23.873939-52.804426-27.042205-5.272264-7.534726-11.545409-14.342561-18.515798-20.063637-0.543891-0.44779-1.118452-0.877177-1.709371-1.26976-17.737789-13.8549-39.883955-21.094167-61.837919-21.251609-4.564797-32.061948-13.589089-59.275908-24.731692-82.145899 1.534549-48.325507 60.757294-112.638538 94.221908-143.393922 21.423364 9.979168 64.152522 26.691539 110.048923 26.697673 0.020447 0 0.027603 0 0.027603 0 44.211567 0 80.716652-15.097056 108.505173-44.850536 46.291029-49.597312 65.323114-139.195126 56.557477-266.309131C925.218407 165.224181 916.968035 156.638478 906.369322 155.493445zM438.97705 499.213968c-77.843846-144.781252-256.370858-158.242547-264.201044-158.757812-6.808857-0.505041-12.556514 4.650674-12.996125 11.391034-0.459036 6.734226 4.640451 12.558559 11.382855 12.997148 1.230911 0.083833 83.374765 6.249631 157.661851 54.163131-9.624412 12.359201-38.240015 35.547142-116.87925 33.773364-6.664706-0.105302-12.327508 5.252839-12.442011 12.0024-0.113481 6.751606 5.252839 12.320351 12.003422 12.444056 2.426039 0.036805 4.803005 0.064408 7.152367 0.064408 82.91164 0 116.773948-26.682337 130.075756-44.22588 28.498033 22.028596 54.515842 51.071542 72.580783 89.336093-43.199439 43.040975-83.762236 64.845676-120.785653 64.845676 0 0-0.009201 0-0.019425 0-102.689019-0.027603-172.051441-174.753515-196.631825-263.931143 70.271292-18.543401 130.983603-27.929606 180.703597-27.929606 69.669128 0 117.529465 18.189668 142.261157 54.055784C462.478854 398.21694 447.507546 469.420617 438.97705 499.213968zM565.07995 729.048684c8.259573 0.727914 10.856345 0.832194 12.613766 0.832194l3.744872-0.066453c12.620922 0 25.01795 4.336813 34.949067 12.213004 0.611366 0.53469 1.251358 1.040753 1.908729 1.499789 5.059615 4.451316 9.435277 9.979168 12.679196 16.080558 3.706022 6.961188 10.866568 11.410459 18.75605 11.650711 13.338613 0.399739 25.867524 5.825356 35.300756 15.296415 8.451775 8.460976 13.627938 19.106717 14.965173 30.804456 0.667595 5.729255 3.551647 10.982094 8.038746 14.600194 3.418742 2.770571 6.323241 5.950083 8.708385 9.58863 4.421668 6.626879 6.762852 14.283265 6.762852 22.133898 0 10.866568-4.239689 21.072698-11.937992 28.771-7.618559 7.629805-17.788906 11.840869-28.617648 11.840869l-239.344625 0c-10.826697 0-20.987843-4.201862-28.607424-11.831668-7.973315-7.991717-12.145529-18.600653-11.764192-29.879229 0.380315-11.342984 5.289644-21.694287 13.731196-29.06646 3.379892-2.932103 6.951986-5.243638 10.638584-6.883489 8.086796-3.60072 13.233311-11.689561 13.052355-20.542098l-0.056229-2.653001c0-21.93454 15.535645-41.222213 36.944696-45.855507 6.167843-1.337235 11.457487-5.252839 14.552143-10.753087 2.50067-4.477897 5.823311-8.412926 9.920894-11.725343 7.133965-5.787529 16.12043-8.976241 25.295007-8.976241 1.126631 0 2.234859 0.209582 3.343088 0.361912 2.224636 0.288303 4.449271 0.564338 6.673907 0.66964l0.010224-0.010224 0 0.010224c0.421209 0.019425 0.801523 0.009201 1.241134 0.028626 0.459036-0.113481 0.820948-0.010224 1.222732-0.028626 3.684553 0.468237 7.505078 0.726892 11.210078 0.973278L565.07995 729.048684zM837.233862 412.130114c-19.403199 20.778261-44.364919 30.88011-76.344057 30.88011l-0.019425 0c-36.074676-0.008179-71.084061-13.347814-89.402546-21.661572 2.112177-21.02567 6.557359-39.378914 12.660794-55.404265 11.153849 4.026018 38.302378 12.572872 67.584554 12.572872 19.784536 0 40.545416-3.904358 57.971388-15.762607 5.586126-3.792922 7.02764-11.393079 3.236763-16.979205-3.800078-5.575902-11.400235-7.026618-16.986361-3.227562-32.15396 21.868087-83.790861 7.161568-101.509226 1.084714 43.287361-78.557447 129.565603-86.825199 134.271484-87.214715 6.721957-0.543891 11.735567-6.426498 11.210078-13.148456-0.53469-6.724002-6.455124-11.746812-13.149478-11.220302-1.559085 0.12166-142.913417 13.04622-174.78623 156.461611-18.671195-51.446744-18.640525-92.54832 0.165621-122.497068 37.622515-59.88114 142.708946-68.826711 201.998145-68.826711 11.324581 0 21.235252 0.332264 29.038856 0.734048C888.17761 302.079146 872.746244 374.087413 837.233862 412.130114z" p-id="11332" fill="#1CA538"></path></svg>