<?xml version="1.0" standalone="no"?><!DOCTYPE svg PUBLIC "-//W3C//DTD SVG 1.1//EN" "http://www.w3.org/Graphics/SVG/1.1/DTD/svg11.dtd"><svg t="1548380683952" class="icon" style="" viewBox="0 0 1024 1024" version="1.1" xmlns="http://www.w3.org/2000/svg" p-id="33086" xmlns:xlink="http://www.w3.org/1999/xlink" width="16" height="16"><defs><style type="text/css"></style></defs><path d="M877.609796 543.284245c-121.417143 0-228.414694 60.813061-292.529633 153.579102l0-158.803592c119.306449-24.241633 208.937796-129.567347 208.937796-255.979102L794.017959 62.275918c0-22.799673-18.808163-41.377959-41.77502-41.377959-11.723755 0-22.360816 4.806531-29.90498 12.538776l-79.412245 78.576327L564.182204 33.436735c-16.718367-16.718367-43.676735-16.718367-60.186122 0l-80.039184 79.830204L343.332571 33.436735C335.76751 25.70449 325.151347 20.897959 313.44849 20.897959c-23.008653 0-41.795918 18.599184-41.795918 41.377959l0 219.804735c0 126.411755 89.652245 231.716571 208.958694 255.979102l0 158.803592c-64.156735-92.745143-171.133388-153.579102-292.550531-153.579102-14.628571 39.079184-20.897959 81.272163-20.897959 125.366857 0 196.210939 158.991673 355.22351 355.22351 355.22351l20.897959 0c196.210939 0 355.22351-159.012571 355.22351-355.22351C898.507755 624.556408 892.238367 582.363429 877.609796 543.284245z" p-id="33087" fill="#1CA538"></path></svg>